<mxfile host="65bd71144e">
    <diagram id="X6wfKJfI7ujWrwP7Jx5_" name="第 1 页">
        <mxGraphModel dx="1698" dy="1139" grid="1" gridSize="10" guides="1" tooltips="1" connect="1" arrows="1" fold="1" page="1" pageScale="1" pageWidth="827" pageHeight="1169" math="0" shadow="0">
            <root>
                <mxCell id="0"/>
                <mxCell id="1" parent="0"/>
                <mxCell id="85" style="edgeStyle=none;html=1;exitX=1;exitY=0.5;exitDx=0;exitDy=0;" parent="1" source="35" edge="1">
                    <mxGeometry relative="1" as="geometry">
                        <mxPoint x="1200" y="430" as="targetPoint"/>
                    </mxGeometry>
                </mxCell>
                <mxCell id="35" value="" style="rounded=0;whiteSpace=wrap;html=1;strokeWidth=2;dashed=1;fillColor=#E5F0FF;" parent="1" vertex="1">
                    <mxGeometry x="485" y="410" width="615" height="40" as="geometry"/>
                </mxCell>
                <mxCell id="86" style="edgeStyle=none;html=1;exitX=1;exitY=0.5;exitDx=0;exitDy=0;" parent="1" source="34" edge="1">
                    <mxGeometry relative="1" as="geometry">
                        <mxPoint x="1200" y="518" as="targetPoint"/>
                    </mxGeometry>
                </mxCell>
                <mxCell id="34" value="" style="rounded=0;whiteSpace=wrap;html=1;dashed=1;strokeWidth=2;fillColor=#E5F0FF;" parent="1" vertex="1">
                    <mxGeometry x="485" y="455" width="615" height="125" as="geometry"/>
                </mxCell>
                <mxCell id="27" style="edgeStyle=none;html=1;exitX=1;exitY=0.5;exitDx=0;exitDy=0;entryX=0;entryY=0.5;entryDx=0;entryDy=0;" parent="1" source="6" target="7" edge="1">
                    <mxGeometry relative="1" as="geometry"/>
                </mxCell>
                <mxCell id="6" value="普通权限" style="rounded=0;whiteSpace=wrap;html=1;fillColor=#d5e8d4;strokeColor=#000000;strokeWidth=2;" parent="1" vertex="1">
                    <mxGeometry x="60" y="330" width="120" height="60" as="geometry"/>
                </mxCell>
                <mxCell id="84" style="edgeStyle=none;html=1;exitX=1;exitY=0.5;exitDx=0;exitDy=0;" parent="1" source="7" edge="1">
                    <mxGeometry relative="1" as="geometry">
                        <mxPoint x="1200" y="360" as="targetPoint"/>
                    </mxGeometry>
                </mxCell>
                <mxCell id="7" value="shouldGrantNormalPermission = true" style="rounded=0;whiteSpace=wrap;html=1;fillColor=#fff2cc;strokeColor=#000000;strokeWidth=2;" parent="1" vertex="1">
                    <mxGeometry x="220" y="330" width="240" height="60" as="geometry"/>
                </mxCell>
                <mxCell id="54" style="edgeStyle=none;html=1;exitX=1;exitY=0.5;exitDx=0;exitDy=0;entryX=0;entryY=0.5;entryDx=0;entryDy=0;" parent="1" source="9" target="10" edge="1">
                    <mxGeometry relative="1" as="geometry"/>
                </mxCell>
                <mxCell id="55" style="edgeStyle=none;html=1;exitX=1;exitY=0.5;exitDx=0;exitDy=0;entryX=0;entryY=0.5;entryDx=0;entryDy=0;" parent="1" source="9" target="11" edge="1">
                    <mxGeometry relative="1" as="geometry"/>
                </mxCell>
                <mxCell id="9" value="签名权限" style="rounded=0;whiteSpace=wrap;html=1;fillColor=#d5e8d4;strokeColor=#000000;strokeWidth=2;" parent="1" vertex="1">
                    <mxGeometry x="60" y="490" width="120" height="70" as="geometry"/>
                </mxCell>
                <mxCell id="44" style="edgeStyle=none;html=1;exitX=1;exitY=0.5;exitDx=0;exitDy=0;entryX=0;entryY=0.5;entryDx=0;entryDy=0;" parent="1" source="10" target="35" edge="1">
                    <mxGeometry relative="1" as="geometry"/>
                </mxCell>
                <mxCell id="45" style="edgeStyle=none;html=1;exitX=1;exitY=0.5;exitDx=0;exitDy=0;entryX=0;entryY=0.5;entryDx=0;entryDy=0;" parent="1" source="10" target="34" edge="1">
                    <mxGeometry relative="1" as="geometry"/>
                </mxCell>
                <mxCell id="10" value="非特权应用" style="rounded=0;whiteSpace=wrap;html=1;fillColor=#fff2cc;strokeColor=#000000;strokeWidth=2;" parent="1" vertex="1">
                    <mxGeometry x="220" y="470" width="240" height="30" as="geometry"/>
                </mxCell>
                <mxCell id="46" style="edgeStyle=none;html=1;exitX=1;exitY=0.25;exitDx=0;exitDy=0;entryX=0;entryY=0.5;entryDx=0;entryDy=0;" parent="1" source="11" target="35" edge="1">
                    <mxGeometry relative="1" as="geometry"/>
                </mxCell>
                <mxCell id="47" style="edgeStyle=none;html=1;exitX=1;exitY=0.25;exitDx=0;exitDy=0;entryX=0;entryY=0.5;entryDx=0;entryDy=0;" parent="1" source="11" target="34" edge="1">
                    <mxGeometry relative="1" as="geometry"/>
                </mxCell>
                <mxCell id="11" value="在isPriviledegedPermissionAllowlisted中" style="rounded=0;whiteSpace=wrap;html=1;fillColor=#fff2cc;strokeColor=#000000;strokeWidth=2;" parent="1" vertex="1">
                    <mxGeometry x="220" y="530" width="240" height="30" as="geometry"/>
                </mxCell>
                <mxCell id="12" value="在shouldGrantSignaturePermission中" style="rounded=0;whiteSpace=wrap;html=1;fillColor=#fff2cc;strokeColor=#000000;strokeWidth=2;" parent="1" vertex="1">
                    <mxGeometry x="490" y="415" width="550" height="30" as="geometry"/>
                </mxCell>
                <mxCell id="63" style="edgeStyle=none;html=1;exitX=1;exitY=0.5;exitDx=0;exitDy=0;" parent="1" source="13" target="14" edge="1">
                    <mxGeometry relative="1" as="geometry"/>
                </mxCell>
                <mxCell id="13" value="特权应用" style="rounded=0;whiteSpace=wrap;html=1;fillColor=#fff2cc;strokeColor=#000000;strokeWidth=2;" parent="1" vertex="1">
                    <mxGeometry x="490" y="460" width="110" height="30" as="geometry"/>
                </mxCell>
                <mxCell id="14" value="在shouldGrantPriviledgedPermissionIfWasGranted中" style="rounded=0;whiteSpace=wrap;html=1;fillColor=#fff2cc;strokeColor=#000000;strokeWidth=2;" parent="1" vertex="1">
                    <mxGeometry x="610" y="460" width="300" height="30" as="geometry"/>
                </mxCell>
                <mxCell id="65" style="edgeStyle=none;html=1;exitX=1;exitY=0.5;exitDx=0;exitDy=0;" parent="1" source="15" edge="1">
                    <mxGeometry relative="1" as="geometry">
                        <mxPoint x="920" y="515.1666666666667" as="targetPoint"/>
                    </mxGeometry>
                </mxCell>
                <mxCell id="15" value="isDevelopment" style="rounded=0;whiteSpace=wrap;html=1;fillColor=#fff2cc;strokeColor=#000000;strokeWidth=2;" parent="1" vertex="1">
                    <mxGeometry x="490" y="500" width="420" height="30" as="geometry"/>
                </mxCell>
                <mxCell id="66" style="edgeStyle=none;html=1;exitX=1;exitY=0.5;exitDx=0;exitDy=0;entryX=0;entryY=0.5;entryDx=0;entryDy=0;" parent="1" source="16" target="17" edge="1">
                    <mxGeometry relative="1" as="geometry"/>
                </mxCell>
                <mxCell id="16" value="isRole" style="rounded=0;whiteSpace=wrap;html=1;fillColor=#fff2cc;strokeColor=#000000;strokeWidth=2;" parent="1" vertex="1">
                    <mxGeometry x="490" y="540" width="420" height="30" as="geometry"/>
                </mxCell>
                <mxCell id="17" value="曾经授权过" style="rounded=0;whiteSpace=wrap;html=1;fillColor=#fff2cc;strokeColor=#000000;strokeWidth=2;" parent="1" vertex="1">
                    <mxGeometry x="920" y="460" width="120" height="110" as="geometry"/>
                </mxCell>
                <mxCell id="30" style="edgeStyle=none;html=1;exitX=1;exitY=0.5;exitDx=0;exitDy=0;entryX=0;entryY=0.5;entryDx=0;entryDy=0;" parent="1" source="18" target="19" edge="1">
                    <mxGeometry relative="1" as="geometry">
                        <Array as="points"/>
                    </mxGeometry>
                </mxCell>
                <mxCell id="31" style="edgeStyle=none;html=1;exitX=1;exitY=0.5;exitDx=0;exitDy=0;entryX=0;entryY=0.5;entryDx=0;entryDy=0;" parent="1" source="18" target="20" edge="1">
                    <mxGeometry relative="1" as="geometry">
                        <Array as="points"/>
                    </mxGeometry>
                </mxCell>
                <mxCell id="18" value="内部权限" style="rounded=0;whiteSpace=wrap;html=1;fillColor=#d5e8d4;strokeColor=#000000;strokeWidth=2;" parent="1" vertex="1">
                    <mxGeometry x="60" y="640" width="120" height="70" as="geometry"/>
                </mxCell>
                <mxCell id="48" style="edgeStyle=none;html=1;exitX=1;exitY=0.5;exitDx=0;exitDy=0;entryX=0;entryY=0.5;entryDx=0;entryDy=0;" parent="1" source="19" target="36" edge="1">
                    <mxGeometry relative="1" as="geometry"/>
                </mxCell>
                <mxCell id="49" style="edgeStyle=none;html=1;exitX=1;exitY=0.5;exitDx=0;exitDy=0;entryX=0;entryY=0.5;entryDx=0;entryDy=0;" parent="1" source="19" target="37" edge="1">
                    <mxGeometry relative="1" as="geometry"/>
                </mxCell>
                <mxCell id="19" value="非特权应用" style="rounded=0;whiteSpace=wrap;html=1;fillColor=#fff2cc;strokeColor=#000000;strokeWidth=2;" parent="1" vertex="1">
                    <mxGeometry x="220" y="630" width="240" height="30" as="geometry"/>
                </mxCell>
                <mxCell id="50" style="edgeStyle=none;html=1;exitX=1;exitY=0.5;exitDx=0;exitDy=0;entryX=0;entryY=0.5;entryDx=0;entryDy=0;" parent="1" source="20" target="36" edge="1">
                    <mxGeometry relative="1" as="geometry"/>
                </mxCell>
                <mxCell id="53" style="edgeStyle=none;html=1;exitX=1;exitY=0.5;exitDx=0;exitDy=0;entryX=0;entryY=0.5;entryDx=0;entryDy=0;" parent="1" source="20" target="37" edge="1">
                    <mxGeometry relative="1" as="geometry"/>
                </mxCell>
                <mxCell id="20" value="在isPriviledegedPermissionAllowlisted中" style="rounded=0;whiteSpace=wrap;html=1;fillColor=#fff2cc;strokeColor=#000000;strokeWidth=2;" parent="1" vertex="1">
                    <mxGeometry x="220" y="690" width="240" height="30" as="geometry"/>
                </mxCell>
                <mxCell id="87" style="edgeStyle=none;html=1;exitX=1;exitY=0.5;exitDx=0;exitDy=0;" parent="1" source="36" edge="1">
                    <mxGeometry relative="1" as="geometry">
                        <mxPoint x="1200" y="630" as="targetPoint"/>
                    </mxGeometry>
                </mxCell>
                <mxCell id="36" value="" style="rounded=0;whiteSpace=wrap;html=1;strokeWidth=2;dashed=1;fillColor=#E5F0FF;" parent="1" vertex="1">
                    <mxGeometry x="485" y="610" width="615" height="40" as="geometry"/>
                </mxCell>
                <mxCell id="88" style="edgeStyle=none;html=1;exitX=1;exitY=0.5;exitDx=0;exitDy=0;" parent="1" source="37" edge="1">
                    <mxGeometry relative="1" as="geometry">
                        <mxPoint x="1200" y="718" as="targetPoint"/>
                    </mxGeometry>
                </mxCell>
                <mxCell id="37" value="" style="rounded=0;whiteSpace=wrap;html=1;strokeWidth=2;dashed=1;fillColor=#E5F0FF;" parent="1" vertex="1">
                    <mxGeometry x="485" y="655" width="615" height="125" as="geometry"/>
                </mxCell>
                <mxCell id="38" value="在shouldGrantInternalPermission中" style="rounded=0;whiteSpace=wrap;html=1;fillColor=#fff2cc;strokeColor=#000000;strokeWidth=2;" parent="1" vertex="1">
                    <mxGeometry x="490" y="615" width="550" height="30" as="geometry"/>
                </mxCell>
                <mxCell id="67" style="edgeStyle=none;html=1;exitX=1;exitY=0.5;exitDx=0;exitDy=0;entryX=0;entryY=0.5;entryDx=0;entryDy=0;" parent="1" source="39" target="40" edge="1">
                    <mxGeometry relative="1" as="geometry"/>
                </mxCell>
                <mxCell id="39" value="特权应用" style="rounded=0;whiteSpace=wrap;html=1;fillColor=#fff2cc;strokeColor=#000000;strokeWidth=2;" parent="1" vertex="1">
                    <mxGeometry x="490" y="660" width="110" height="30" as="geometry"/>
                </mxCell>
                <mxCell id="68" style="edgeStyle=none;html=1;exitX=1;exitY=0.5;exitDx=0;exitDy=0;entryX=0;entryY=0.5;entryDx=0;entryDy=0;" parent="1" source="40" target="43" edge="1">
                    <mxGeometry relative="1" as="geometry"/>
                </mxCell>
                <mxCell id="40" value="在shouldGrantPriviledgedPermissionIfWasGranted中" style="rounded=0;whiteSpace=wrap;html=1;fillColor=#fff2cc;strokeColor=#000000;strokeWidth=2;" parent="1" vertex="1">
                    <mxGeometry x="610" y="660" width="300" height="30" as="geometry"/>
                </mxCell>
                <mxCell id="69" style="edgeStyle=none;html=1;exitX=1;exitY=0.5;exitDx=0;exitDy=0;" parent="1" source="41" edge="1">
                    <mxGeometry relative="1" as="geometry">
                        <mxPoint x="920" y="715.1666666666667" as="targetPoint"/>
                    </mxGeometry>
                </mxCell>
                <mxCell id="41" value="isDevelopment" style="rounded=0;whiteSpace=wrap;html=1;fillColor=#fff2cc;strokeColor=#000000;strokeWidth=2;" parent="1" vertex="1">
                    <mxGeometry x="490" y="700" width="420" height="30" as="geometry"/>
                </mxCell>
                <mxCell id="70" style="edgeStyle=none;html=1;exitX=1;exitY=0.5;exitDx=0;exitDy=0;" parent="1" source="42" edge="1">
                    <mxGeometry relative="1" as="geometry">
                        <mxPoint x="920" y="720" as="targetPoint"/>
                    </mxGeometry>
                </mxCell>
                <mxCell id="42" value="isRole" style="rounded=0;whiteSpace=wrap;html=1;fillColor=#fff2cc;strokeColor=#000000;strokeWidth=2;" parent="1" vertex="1">
                    <mxGeometry x="490" y="740" width="420" height="30" as="geometry"/>
                </mxCell>
                <mxCell id="43" value="曾经授权过" style="rounded=0;whiteSpace=wrap;html=1;fillColor=#fff2cc;strokeColor=#000000;strokeWidth=2;" parent="1" vertex="1">
                    <mxGeometry x="920" y="660" width="120" height="110" as="geometry"/>
                </mxCell>
                <mxCell id="64" style="edgeStyle=none;html=1;exitX=1;exitY=0.5;exitDx=0;exitDy=0;entryX=-0.003;entryY=0.449;entryDx=0;entryDy=0;entryPerimeter=0;" parent="1" source="14" target="17" edge="1">
                    <mxGeometry relative="1" as="geometry"/>
                </mxCell>
                <mxCell id="71" value="判断是否继承&lt;div&gt;之前的授权&lt;/div&gt;" style="text;html=1;align=center;verticalAlign=middle;whiteSpace=wrap;rounded=0;textDirection=vertical-rl;" parent="1" vertex="1">
                    <mxGeometry x="1060" y="462.5" width="30" height="110" as="geometry"/>
                </mxCell>
                <mxCell id="72" value="判断是否继承&lt;div&gt;之前的授权&lt;/div&gt;" style="text;html=1;align=center;verticalAlign=middle;whiteSpace=wrap;rounded=0;textDirection=vertical-rl;" parent="1" vertex="1">
                    <mxGeometry x="1060" y="655" width="30" height="110" as="geometry"/>
                </mxCell>
                <mxCell id="89" value="" style="rounded=0;whiteSpace=wrap;html=1;strokeWidth=2;dashed=1;" parent="1" vertex="1">
                    <mxGeometry x="1200" y="320" width="260" height="460" as="geometry"/>
                </mxCell>
                <mxCell id="73" value="uidState.grantPermission" style="text;html=1;align=center;verticalAlign=middle;whiteSpace=wrap;rounded=0;fontSize=14;fontStyle=1" parent="1" vertex="1">
                    <mxGeometry x="1250" y="540" width="180" height="30" as="geometry"/>
                </mxCell>
            </root>
        </mxGraphModel>
    </diagram>
</mxfile>